<?xml version="1.0" encoding="utf-8"?>
<!-- Generator: Adobe Illustrator 27.9.0, SVG Export Plug-In . SVG Version: 6.00 Build 0)  -->
<svg version="1.1" id="Layer_1" xmlns="http://www.w3.org/2000/svg" xmlns:xlink="http://www.w3.org/1999/xlink" x="0px" y="0px"
	 viewBox="0 0 792 612" xml:space="preserve">
<style type="text/css">
	.st0{fill:#45196F;}
	.st1{fill:url(#SVGID_1_);}
	.st2{fill:url(#SVGID_00000172418257236670025920000008259357362250163102_);}
	.st3{fill:#F8D0C2;}
</style>
<g>
	<g>
		<path class="st0" d="M337.1,326c-2.7-1.1-4.9-2.7-6.5-4.7c-1.6-2-2.5-4.5-2.7-7.3l0-0.5h7.4l0.1,0.4c0.2,1.5,0.8,2.8,1.9,3.8
			c1,1.1,2.4,1.9,4,2.5c1.7,0.6,3.6,0.9,5.7,0.9c2.2,0,4-0.3,5.6-0.9c1.6-0.6,2.8-1.5,3.6-2.6c0.9-1.1,1.3-2.4,1.3-3.9v0
			c0-1.9-0.7-3.5-2.1-4.7s-3.7-2.1-6.9-2.8l-5.3-1.1c-4.7-1-8.3-2.6-10.6-4.9c-2.3-2.2-3.5-5.1-3.5-8.7v0c0-2.8,0.8-5.2,2.3-7.3
			c1.5-2.1,3.6-3.7,6.2-4.9c2.6-1.2,5.7-1.8,9.1-1.8c3.4,0,6.3,0.6,8.9,1.7c2.6,1.1,4.6,2.7,6.1,4.8c1.5,2,2.3,4.4,2.5,7.2l0,0.5
			h-7.4l-0.1-0.4c-0.2-1.5-0.8-2.8-1.7-3.9s-2.1-1.9-3.5-2.5s-3.1-0.9-5.1-0.9c-2,0-3.7,0.3-5.2,0.9c-1.5,0.6-2.6,1.4-3.4,2.5
			c-0.8,1.1-1.2,2.3-1.2,3.7v0c0,1.8,0.7,3.3,2.1,4.4c1.4,1.1,3.7,2,6.7,2.7l5.3,1.1c5,1.1,8.7,2.7,10.9,4.8
			c2.3,2.2,3.4,5.1,3.4,8.9v0c0,3-0.7,5.5-2.2,7.7c-1.5,2.2-3.6,3.8-6.4,5c-2.8,1.2-6.1,1.8-9.9,1.8
			C343,327.6,339.9,327.1,337.1,326z"/>
		<path class="st0" d="M368.2,291.5h7.3v6h0.2c0.7-1.4,1.6-2.6,2.7-3.6c1.1-1,2.3-1.8,3.7-2.3c1.4-0.5,3-0.8,4.6-0.8
			c3,0,5.6,0.7,7.8,2.2s3.9,3.6,5.1,6.3c1.2,2.7,1.8,6,1.8,9.8v0c0,3.8-0.6,7-1.8,9.7c-1.2,2.7-2.9,4.8-5.1,6.3
			c-2.2,1.5-4.8,2.3-7.7,2.3c-1.7,0-3.2-0.3-4.7-0.8c-1.4-0.5-2.7-1.3-3.8-2.3c-1.1-1-2-2.2-2.7-3.5h-0.1v17.7h-7.3V291.5z
			 M389.8,319.8c1.4-1,2.5-2.4,3.2-4.2c0.7-1.8,1.1-4,1.1-6.4v0c0-2.5-0.4-4.7-1.1-6.5c-0.7-1.8-1.8-3.2-3.2-4.2
			c-1.4-1-3-1.4-4.9-1.4c-1.8,0-3.5,0.5-4.9,1.5c-1.4,1-2.5,2.4-3.3,4.2c-0.8,1.8-1.2,3.9-1.2,6.4v0c0,2.4,0.4,4.6,1.2,6.4
			c0.8,1.8,1.9,3.2,3.3,4.2c1.4,1,3,1.5,4.9,1.5C386.8,321.3,388.4,320.8,389.8,319.8z"/>
		<path class="st0" d="M408.6,326.1c-1.8-0.9-3.1-2.1-4.1-3.8s-1.5-3.5-1.5-5.6v-0.1c0-3.1,1.1-5.5,3.4-7.3c2.3-1.8,5.5-2.8,9.7-3.1
			l13.4-0.8v5.1l-12.4,0.8c-2.2,0.1-3.8,0.7-5,1.6c-1.2,0.9-1.8,2.1-1.8,3.6v0.1c0,1.5,0.6,2.8,1.8,3.7c1.2,0.9,2.7,1.3,4.7,1.3
			c1.7,0,3.2-0.3,4.6-1c1.4-0.7,2.4-1.7,3.2-2.9c0.8-1.2,1.2-2.6,1.2-4.1v-10.5c0-1.9-0.6-3.5-1.8-4.6c-1.2-1.1-2.9-1.7-5.2-1.7
			c-2.1,0-3.8,0.4-5,1.3c-1.3,0.9-2.1,2-2.4,3.5l-0.1,0.3h-6.9l0-0.4c0.2-2,0.9-3.9,2-5.5c1.2-1.6,2.8-2.9,4.9-3.8
			c2.1-0.9,4.6-1.4,7.5-1.4s5.4,0.5,7.5,1.4c2.1,1,3.7,2.3,4.9,4.1c1.2,1.7,1.7,3.8,1.7,6.1v24.4h-7.3v-5.6h-0.1
			c-0.7,1.3-1.6,2.4-2.7,3.3s-2.3,1.6-3.7,2.1s-2.8,0.8-4.4,0.8C412.4,327.5,410.4,327,408.6,326.1z"/>
		<path class="st0" d="M439.3,338.5c-0.7-0.1-1.3-0.1-1.7-0.2v-5.7c0.3,0,0.6,0.1,1,0.2c0.4,0.1,0.9,0.1,1.4,0.1
			c1.7,0,3.1-0.3,4.1-0.9c1-0.6,1.8-1.7,2.4-3.4l0.6-1.7l-12.9-35.4h7.9l9.4,30.3l-1.3-1.6h1.8l-1.3,1.6l9.4-30.3h7.7l-13.2,36.9
			c-0.9,2.4-1.9,4.4-3.1,5.9c-1.2,1.5-2.6,2.6-4.2,3.3s-3.6,1-6,1C440.7,338.6,440,338.6,439.3,338.5z"/>
		<path class="st0" d="M466.6,278.4h7.9l9,38h0.2l10.2-38h7.2l10.2,38h0.2l9-38h7.9l-13.1,48.5h-7.3l-10.4-36.5h-0.2l-10.4,36.5
			h-7.3L466.6,278.4z"/>
		<path class="st0" d="M531.5,284.8c-0.8-0.8-1.2-1.8-1.2-2.9c0-1.2,0.4-2.2,1.2-3c0.8-0.8,1.8-1.2,3-1.2c1.2,0,2.2,0.4,3,1.2
			c0.8,0.8,1.2,1.8,1.2,3c0,1.1-0.4,2.1-1.2,2.9c-0.8,0.8-1.8,1.2-3,1.2C533.3,286,532.3,285.6,531.5,284.8z M530.8,291.5h7.3v35.3
			h-7.3V291.5z"/>
		<path class="st0" d="M548.5,326.2c-2.1-0.9-3.8-2.2-5-3.8c-1.2-1.6-1.9-3.5-2.2-5.7l0-0.3h7.2l0.1,0.3c0.4,1.6,1.2,2.9,2.4,3.8
			c1.2,0.9,3,1.4,5.2,1.4c1.5,0,2.7-0.2,3.8-0.6c1-0.4,1.8-0.9,2.4-1.6c0.6-0.7,0.8-1.5,0.8-2.5v0c0-1.1-0.4-2.1-1.1-2.8
			c-0.7-0.7-2.1-1.3-4-1.7l-5.8-1.3c-3.4-0.8-5.9-2-7.5-3.6c-1.7-1.6-2.5-3.7-2.5-6.3v0c0-2.1,0.6-4,1.7-5.6
			c1.1-1.6,2.7-2.8,4.8-3.7c2.1-0.9,4.4-1.3,7.2-1.3c2.8,0,5.2,0.5,7.2,1.4c2,0.9,3.6,2.2,4.7,3.8c1.1,1.6,1.8,3.4,1.9,5.4v0.4h-6.8
			l0-0.2c-0.2-1.5-0.9-2.8-2.1-3.8s-2.8-1.5-4.8-1.5c-1.3,0-2.4,0.2-3.4,0.6c-1,0.4-1.7,0.9-2.2,1.6s-0.8,1.5-0.8,2.5v0
			c0,1.1,0.4,2,1.2,2.8s2.1,1.4,4,1.8l5.8,1.3c3.6,0.8,6.2,2,7.7,3.5c1.5,1.5,2.3,3.5,2.3,6.1v0c0,2.1-0.6,4-1.8,5.7
			c-1.2,1.6-2.9,2.9-5.1,3.8s-4.6,1.4-7.4,1.4C553.1,327.5,550.6,327.1,548.5,326.2z"/>
		<path class="st0" d="M579.5,325.3c-2.5-1.5-4.4-3.6-5.7-6.3c-1.3-2.7-2-6-2-9.7v0c0-3.7,0.7-6.9,2-9.7c1.3-2.8,3.2-4.9,5.7-6.4
			c2.4-1.5,5.3-2.3,8.6-2.3c3.3,0,6.2,0.7,8.5,2.2c2.4,1.5,4.2,3.5,5.5,6.2c1.3,2.7,1.9,5.8,1.9,9.3v2.5h-28.7v-5.1h25.2l-3.6,4.8
			v-2.8c0-2.5-0.4-4.6-1.1-6.2c-0.8-1.6-1.8-2.9-3.1-3.7c-1.3-0.8-2.9-1.2-4.6-1.2c-1.7,0-3.3,0.4-4.6,1.3c-1.4,0.9-2.4,2.1-3.2,3.7
			c-0.8,1.6-1.2,3.7-1.2,6.1v2.8c0,2.3,0.4,4.2,1.2,5.9c0.8,1.6,1.9,2.9,3.3,3.7c1.4,0.9,3.1,1.3,5.1,1.3c1.4,0,2.7-0.2,3.8-0.7
			c1.1-0.4,2-1,2.7-1.7c0.7-0.7,1.2-1.5,1.5-2.4l0.1-0.3h6.9l-0.1,0.4c-0.3,1.4-0.8,2.7-1.6,4s-1.9,2.4-3.1,3.4
			c-1.3,1-2.8,1.8-4.6,2.4c-1.7,0.6-3.7,0.9-5.8,0.9C584.9,327.5,582,326.8,579.5,325.3z"/>
	</g>
	<g>
		<linearGradient id="SVGID_1_" gradientUnits="userSpaceOnUse" x1="232.7475" y1="300.1623" x2="287.5374" y2="300.1623">
			<stop  offset="0.2661" style="stop-color:#B5B0D8"/>
			<stop  offset="0.9997" style="stop-color:#7A5BA7"/>
		</linearGradient>
		<path class="st1" d="M252.7,343.9h26.5C266.4,328,259.7,313,259.7,313l17.6,2.5c0,0,7.1-9.8,9.6-15.5c2.5-5.7-3.4-6.9-3.4-6.9
			l-17.3-4.1c0,0,0.3-7.6-3.4-9.5c-3.7-1.9-15.5-6-15.5-6c-0.3-17.7-7.1-17.1-7.1-17.1s-6.3-0.9-7.6,16.5L252.7,343.9z"/>
		<g>
			
				<linearGradient id="SVGID_00000106861736097600029120000001380125785034083981_" gradientUnits="userSpaceOnUse" x1="211.5371" y1="305.8128" x2="257.3603" y2="305.8128">
				<stop  offset="0.2661" style="stop-color:#B5B0D8"/>
				<stop  offset="0.9997" style="stop-color:#7A5BA7"/>
			</linearGradient>
			<path style="fill:url(#SVGID_00000106861736097600029120000001380125785034083981_);" d="M255.4,332.4l-11-20.5
				c0,0,6.2-1.3,8.8-3.6c2.7-2.3,4.5-4.7,4.1-7.5c-0.4-2.7-7.2-10.9-9.6-12.8s-9.2-2.9-9.2-2.9c-2.9-13-9.3-13.1-9.3-13.1
				c-6.2,5.3-6.9,17.1-6.9,17.1l-10.7,35.7l27.2,14.7L255.4,332.4z"/>
			<path class="st3" d="M276.5,342c-21.1-3.4-31.4-18.2-39-27c-9.4-10.7-17.1-0.1-17.1-0.1l17,22.8l-22.8-13.3l0.5,0.1l7.7-29.9
				c0.9-3.4-1.2-6.8-4.5-7.7s-6.8,1.2-7.7,4.5l-0.1,0.3l0-5c0-3.5-2.8-6.3-6.3-6.3c-3.5,0-6.3,2.8-6.3,6.3v48.1l49.8,28.8l32.3-18.6
				L276.5,342z"/>
		</g>
		<path class="st0" d="M279.2,346.6c-0.8,0-1.6-0.3-2.1-1c-12.9-16-19.6-30.9-19.9-31.5c-0.4-0.9-0.3-1.9,0.3-2.7s1.6-1.2,2.5-1
			l16,2.3c2-2.8,6.5-9.5,8.4-13.6c0.3-0.6,0.5-1.5,0.3-2.1c-0.4-0.7-1.6-1.1-1.8-1.2l-17.4-4.1c-1.3-0.3-2.1-1.4-2.1-2.7
			c0.1-2.4-0.6-6.3-1.9-7c-3.5-1.8-15-5.8-15.1-5.9c-1.1-0.4-1.8-1.4-1.8-2.5c-0.2-12.5-3.7-14.3-4.3-14.5c-0.2,0-0.2,0-0.3,0
			c-1,0.2-3.9,3.2-4.7,14c-0.1,1.5-1.4,2.6-2.9,2.5c-1.5-0.1-2.6-1.4-2.5-2.9c0.6-8.9,2.7-14.8,6.1-17.5c1.8-1.5,3.5-1.6,4.3-1.5
			c0.8,0,2.6,0.2,4.5,1.9c3.1,2.8,4.8,8.1,5.1,16c3.5,1.2,11.1,4,14,5.5c3.7,1.9,4.6,6.8,4.8,9.7l15.3,3.6c0.3,0.1,3.8,0.9,5.4,3.9
			c0.7,1.3,1.2,3.6-0.1,6.7c-2.6,5.9-9.6,15.6-9.9,16c-0.6,0.8-1.6,1.2-2.6,1.1l-12.6-1.8c2.9,5.6,8.6,15.5,16.9,25.8
			c0.9,1.2,0.8,2.8-0.4,3.8C280.4,346.4,279.8,346.6,279.2,346.6z M240.5,259.1L240.5,259.1z M240.2,259.1L240.2,259.1z"/>
		<path class="st0" d="M255.4,335.1c-1,0-1.9-0.5-2.4-1.4l-11-20.5c-0.4-0.7-0.4-1.6-0.1-2.4c0.4-0.8,1-1.3,1.9-1.5
			c2.1-0.5,6.1-1.7,7.6-3c2.4-2,3.4-3.7,3.2-5c-0.4-1.9-6.4-9.3-8.6-11c-1.3-1-5.5-2-8-2.4c-1.1-0.2-2-1-2.2-2.1
			c-1.7-7.5-4.4-9.9-5.9-10.7c-3.6,4.1-4.8,11.5-5,14.3c-0.1,1.5-1.3,2.6-2.8,2.5c-1.5-0.1-2.6-1.4-2.5-2.8c0-0.5,0.8-13,7.8-19
			c0.5-0.4,1.1-0.6,1.8-0.6c0.8,0,8,0.6,11.4,13.5c2.4,0.5,6.5,1.5,8.7,3.1c2.3,1.8,10.1,10.6,10.7,14.5c0.7,4.4-2.5,7.8-5,9.9
			c-1.7,1.5-4.4,2.6-6.6,3.3l9.4,17.5c0.7,1.3,0.2,2.9-1.1,3.6C256.3,335,255.8,335.1,255.4,335.1z"/>
		<path class="st0" d="M297.4,327.4c-1.4,0-2.5-1.1-2.5-2.5v-46.2l-47.3-27.3l-32.9,19c-1.2,0.7-2.7,0.3-3.4-0.9
			c-0.7-1.2-0.3-2.7,0.9-3.4l34.1-19.7c0.8-0.4,1.7-0.4,2.5,0l49.8,28.8c0.8,0.4,1.2,1.3,1.2,2.2v47.6
			C299.9,326.2,298.8,327.4,297.4,327.4z"/>
		<path class="st0" d="M247.6,366c-0.4,0-0.8-0.1-1.2-0.3l-49.8-28.8c-0.8-0.4-1.2-1.2-1.2-2.1v-48.1c0-4.8,3.9-8.8,8.8-8.8
			s8.8,3.9,8.8,8.8l0,34l15.4,9l-9.9-13.2c-0.6-0.9-0.6-2,0-2.9c0.2-0.2,4-5.4,10-5.6c3.9-0.2,7.5,1.7,10.9,5.6c0.8,1,1.7,2,2.6,3.1
			c7.2,8.5,17,20.1,35,23.1c1.3,0.2,2.2,1.5,2,2.8c0,0.1,0,0.2-0.1,0.2c1.1-0.5,2.4-0.1,3.1,1c0.7,1.2,0.3,2.6-0.9,3.3l-32.3,18.6
			C248.4,365.9,248,366,247.6,366z M200.2,333.4l47.4,27.4l28.3-16.3c-19.5-3.3-30-15.6-37.6-24.7c-0.9-1.1-1.8-2.1-2.6-3
			c-2.4-2.7-4.7-4-7.1-3.9c-2.2,0.1-4,1.4-5.1,2.4l15.8,21.2c0.7,0.9,0.6,2.2-0.1,3.1s-2,1.1-3,0.5l-26.9-15.7
			c-0.7-0.4-1.2-1.2-1.2-2.1l0-35.4c0-2.2-1.8-3.9-3.9-3.9c-2.2,0-3.9,1.8-3.9,3.9V333.4z"/>
		<path class="st0" d="M215,326.9c-0.2,0-0.4,0-0.6-0.1c-1.3-0.3-2.1-1.7-1.7-3l7.7-29.9c0.3-1,0.1-2.1-0.4-3
			c-0.5-0.9-1.4-1.5-2.4-1.8c-2.1-0.5-4.2,0.7-4.8,2.8c-0.3,1.3-1.7,2.1-3,1.7c-1.3-0.3-2.1-1.7-1.7-3c1.2-4.7,6-7.5,10.7-6.3
			c2.3,0.6,4.2,2,5.4,4c1.2,2,1.5,4.4,0.9,6.6l-7.7,29.9C217.1,326.2,216.1,326.9,215,326.9z"/>
	</g>
</g>
</svg>
